<?xml version="1.0" encoding="UTF-8" standalone="no"?>
<!-- Created with Inkscape (http://www.inkscape.org/) -->
<svg xmlns:dc="http://purl.org/dc/elements/1.1/" xmlns:cc="http://creativecommons.org/ns#" xmlns:rdf="http://www.w3.org/1999/02/22-rdf-syntax-ns#" xmlns:svg="http://www.w3.org/2000/svg" xmlns="http://www.w3.org/2000/svg" xmlns:sodipodi="http://sodipodi.sourceforge.net/DTD/sodipodi-0.dtd" xmlns:inkscape="http://www.inkscape.org/namespaces/inkscape" width="265" height="260" id="svg2" sodipodi:version="0.32" inkscape:version="0.46" version="1.0" sodipodi:docname="openZIM-Logo.svg" inkscape:output_extension="org.inkscape.output.svg.inkscape" inkscape:export-filename="/home/manuel/Daten/Wikimedia/openZIM/openZIM-Logo.png" inkscape:export-xdpi="599.88458" inkscape:export-ydpi="599.88458">
  <defs id="defs4">
    <inkscape:perspective sodipodi:type="inkscape:persp3d" inkscape:vp_x="0 : 526.18109 : 1" inkscape:vp_y="0 : 1000 : 0" inkscape:vp_z="744.09448 : 526.18109 : 1" inkscape:persp3d-origin="372.04724 : 350.78739 : 1" id="perspective10"/>
  </defs>
  <sodipodi:namedview id="base" pagecolor="#ffffff" bordercolor="#666666" borderopacity="1.0" inkscape:pageopacity="0.0" inkscape:pageshadow="2" inkscape:zoom="1" inkscape:cx="383.92857" inkscape:cy="156.64574" inkscape:document-units="px" inkscape:current-layer="g3224" showgrid="true" inkscape:object-paths="true" inkscape:object-nodes="true" inkscape:snap-bbox="true" inkscape:bbox-paths="true" inkscape:bbox-nodes="true" objecttolerance="5" gridtolerance="5" guidetolerance="6" inkscape:window-width="1272" inkscape:window-height="774" inkscape:window-x="0" inkscape:window-y="0">
    <inkscape:grid type="xygrid" id="grid2387" visible="true" enabled="true"/>
  </sodipodi:namedview>
  <metadata id="metadata7">
    <rdf:RDF>
      <cc:Work rdf:about="">
        <dc:format>image/svg+xml</dc:format>
        <dc:type rdf:resource="http://purl.org/dc/dcmitype/StillImage"/>
      </cc:Work>
    </rdf:RDF>
  </metadata>
  <g inkscape:label="Ebene 1" inkscape:groupmode="layer" id="layer1" transform="translate(-400,-287.48007)">
    <g id="g3196">
      <g id="g3224" transform="matrix(0.9882108,-0.1530996,0.1530996,0.9882108,-59.659615,49.360708)">
        <g id="g3238">
          <path sodipodi:nodetypes="cccc" id="path3243" d="M 573.39371,542.29898 L 478.33076,568.04845 L 515.07466,330.87787 L 420.01171,356.62734" style="fill:none;fill-opacity:0.75;fill-rule:evenodd;stroke:#00aa00;stroke-width:20;stroke-linecap:round;stroke-linejoin:round;stroke-miterlimit:4;stroke-dasharray:none;stroke-opacity:1"/>
          <g id="g3207" transform="matrix(6.315007e-2,-0.3731961,0.3731961,6.315007e-2,244.68608,600.26363)" inkscape:transform-center-x="34.060206" inkscape:transform-center-y="-15.140826">
            <path style="fill:#000000;fill-opacity:1;stroke:none;stroke-width:24.28403091;stroke-miterlimit:4;stroke-dasharray:none;stroke-dashoffset:0;stroke-opacity:1" d="M 220.124,384.35776 C 196.24151,384.03656 173.26821,399.57677 164.43839,421.72553 C 155.52447,442.70994 160.35031,468.50361 176.10438,484.95169 C 191.51181,501.89756 217.0034,508.52675 238.70757,501.19868 C 261.82367,493.95261 279.22999,471.58501 280.17595,447.31926 C 281.69645,423.73378 267.51759,400.32369 246.19119,390.30907 C 238.09915,386.38838 229.11467,384.34566 220.124,384.35776 z M 220.124,404.14701 C 238.58239,403.76522 255.86868,417.97013 259.18277,436.11142 C 263.06148,453.59571 253.72346,472.94391 237.39853,480.45488 C 220.84044,488.76733 198.97229,483.44685 188.18212,468.35569 C 176.13658,452.77105 178.09365,428.48821 192.62568,415.1423 C 199.93271,408.10843 209.98241,404.0966 220.124,404.14701 z" id="path2393"/>
            <path style="fill:#000000;fill-opacity:1;stroke:none;stroke-width:24.28403473;stroke-linecap:round;stroke-miterlimit:4;stroke-dasharray:none;stroke-dashoffset:0;stroke-opacity:1" d="M 499.98019,385.24524 C 476.10522,384.92282 453.12834,400.44517 444.29901,422.59009 C 435.38411,443.57763 440.21648,469.37059 455.96335,485.82611 C 471.56985,503.0041 497.50296,509.56284 519.41177,501.86973 C 527.2434,498.99877 535.15668,495.01593 540.71618,488.67637 C 545.15761,482.37546 539.49151,472.93425 531.9045,473.53476 C 525.7353,473.72545 522.21411,479.78805 516.67368,481.7457 C 499.89494,489.61746 478.03411,483.87008 467.52255,468.52285 C 464.86009,464.62164 461.87313,459.27216 461.6634,455.12025 C 491.49023,455.13132 521.33139,455.09771 551.14918,455.13774 C 558.29161,454.58111 561.31939,446.8082 559.92986,440.54475 C 558.34649,416.07709 540.04571,393.97335 516.43975,387.53462 C 511.09518,386.01016 505.53737,385.2433 499.98019,385.24524 z M 499.98019,404.99524 C 517.77575,404.65883 534.57709,417.81239 538.63643,435.12024 C 512.8656,435.12025 487.09477,435.12025 461.32393,435.12024 C 465.47981,417.71913 482.06002,404.73412 499.98019,404.99524 z" id="path2397"/>
            <path style="fill:#000000;fill-opacity:1;stroke:none;stroke-width:24.57142639;stroke-miterlimit:4;stroke-dasharray:none;stroke-dashoffset:0;stroke-opacity:1" d="M 589.96775,384.09598 C 583.65277,383.98536 579.20766,390.34468 580.124,396.29128 C 580.17126,429.39036 580.02939,462.49446 580.1951,495.59039 C 580.79243,504.87079 594.71174,507.67103 598.82685,499.31347 C 601.03574,494.43734 599.79996,488.92222 600.124,483.71712 C 600.19459,469.5329 599.97853,455.34166 600.24002,441.1621 C 601.26148,422.74304 616.66592,406.52843 635.00995,404.57195 C 653.00322,401.92258 671.78093,413.24338 677.70778,430.45964 C 681.37312,440.33058 679.76605,450.96184 680.124,461.24434 C 680.1701,472.49451 680.03095,483.74961 680.1951,494.99665 C 680.79243,504.27705 694.71175,507.07728 698.82687,498.71972 C 701.33519,492.82819 699.61599,486.15216 700.12066,479.91132 C 699.90184,465.8965 700.53817,451.84873 699.76257,437.85383 C 697.45058,413.49997 678.65582,391.90217 654.91216,386.1069 C 635.90224,381.10688 614.62157,386.32839 600.124,399.62723 C 600.2292,394.6704 600.57105,388.67876 595.63171,385.7611 C 593.96847,384.65244 591.96703,384.06057 589.96775,384.09598 z" id="path2399"/>
            <path style="fill:#000000;fill-opacity:1;stroke:none;stroke-width:24.52159691;stroke-miterlimit:4;stroke-dasharray:none;stroke-dashoffset:0;stroke-opacity:1" d="M 360.13132,384.35977 C 332.43194,383.8473 306.4164,405.05792 301.23977,432.25292 C 295.36982,458.38686 309.85353,486.98017 334.06984,498.19676 C 357.70386,510.07809 388.61795,503.6218 405.5855,483.34712 C 423.19367,463.80114 425.13464,432.3959 409.97783,410.87451 C 399.05769,394.52643 379.82182,384.18995 360.13132,384.35977 z M 360.13132,403.91702 C 379.78123,403.4601 397.90106,419.54486 399.90944,439.07196 C 402.78492,458.21778 389.88138,478.15579 371.10134,483.07347 C 352.61375,488.71985 331.11924,478.745 323.55545,460.945 C 315.11118,443.05259 322.14371,419.64674 339.34076,409.70609 C 345.56627,405.91312 352.84368,403.90106 360.13132,403.91702 z M 300.124,448.78348 C 300.17099,484.37472 300.02995,519.97092 300.19466,555.55905 C 300.78313,564.84533 314.72074,567.63607 318.83188,559.28103 C 321.14067,553.74618 319.7369,547.53409 320.124,541.66622 C 320.124,510.70531 320.124,479.74439 320.124,448.78348 C 314.99492,445.20025 305.70228,444.06449 300.33761,447.84566 L 300.124,448.78348 z" id="path2395"/>
          </g>
          <g id="g3213" transform="matrix(0.957434,0,0,0.842137,22.222117,75.958251)">
            <path style="fill:#ff0000;fill-opacity:0.75;fill-rule:evenodd;stroke:#000000;stroke-width:22.2732811;stroke-linecap:round;stroke-linejoin:miter;stroke-miterlimit:4;stroke-dasharray:none;stroke-opacity:1" d="M 513.74711,542.85081 L 545.72834,308.15961" id="path3245" sodipodi:nodetypes="cc"/>
            <g id="g3219" transform="matrix(0.99967,-2.9202552e-2,2.2592724e-2,0.99967,-11.532967,11.990081)">
              <path sodipodi:nodetypes="cc" id="path3247" d="M 546.7396,534.85555 L 581.21712,318.70169" style="fill:#ff0000;fill-opacity:0.75;fill-rule:evenodd;stroke:#000000;stroke-width:22.2732811;stroke-linecap:round;stroke-linejoin:miter;stroke-miterlimit:4;stroke-dasharray:none;stroke-opacity:1"/>
              <path sodipodi:nodetypes="cc" id="path3249" d="M 644.37083,554.98417 L 678.84835,338.83031" style="fill:#ff0000;fill-opacity:0.75;fill-rule:evenodd;stroke:#000000;stroke-width:22.2732811;stroke-linecap:round;stroke-linejoin:miter;stroke-miterlimit:4;stroke-dasharray:none;stroke-opacity:1"/>
              <path sodipodi:nodetypes="ccc" id="path3253" d="M 581.21712,318.70169 L 610.69065,433.39223 L 678.84835,338.83031" style="fill:none;fill-opacity:0.75;fill-rule:evenodd;stroke:#000000;stroke-width:22.2732811;stroke-linecap:round;stroke-linejoin:round;stroke-miterlimit:4;stroke-dasharray:none;stroke-opacity:1"/>
            </g>
          </g>
        </g>
      </g>
    </g>
  </g>
</svg>
